<svg width="133" height="14" viewBox="0 0 133 14" fill="none" xmlns="http://www.w3.org/2000/svg">
<path d="M0.494 13V0.399999H6.218C7.586 0.399999 8.792 0.663999 9.836 1.192C10.88 1.708 11.696 2.434 12.284 3.37C12.872 4.306 13.166 5.416 13.166 6.7C13.166 7.972 12.872 9.082 12.284 10.03C11.696 10.966 10.88 11.698 9.836 12.226C8.792 12.742 7.586 13 6.218 13H0.494ZM3.41 10.606H6.074C6.914 10.606 7.64 10.45 8.252 10.138C8.876 9.814 9.356 9.358 9.692 8.77C10.04 8.182 10.214 7.492 10.214 6.7C10.214 5.896 10.04 5.206 9.692 4.63C9.356 4.042 8.876 3.592 8.252 3.28C7.64 2.956 6.914 2.794 6.074 2.794H3.41V10.606ZM18.0471 5.476H24.1131V7.744H18.0471V5.476ZM18.2631 10.66H25.1211V13H15.3651V0.399999H24.8871V2.74H18.2631V10.66ZM30.1413 6.07H36.1893V8.41H30.1413V6.07ZM30.3573 13H27.4413V0.399999H36.9633V2.74H30.3573V13ZM41.6194 5.476H47.6854V7.744H41.6194V5.476ZM41.8354 10.66H48.6934V13H38.9374V0.399999H48.4594V2.74H41.8354V10.66ZM57.0435 13.216C56.0715 13.216 55.1655 13.06 54.3255 12.748C53.4975 12.424 52.7775 11.968 52.1655 11.38C51.5535 10.792 51.0735 10.102 50.7255 9.31C50.3895 8.518 50.2215 7.648 50.2215 6.7C50.2215 5.752 50.3895 4.882 50.7255 4.09C51.0735 3.298 51.5535 2.608 52.1655 2.02C52.7895 1.432 53.5155 0.981999 54.3435 0.669999C55.1715 0.345999 56.0775 0.184 57.0615 0.184C58.1535 0.184 59.1375 0.376 60.0135 0.76C60.9015 1.132 61.6455 1.684 62.2455 2.416L60.3735 4.144C59.9415 3.652 59.4615 3.286 58.9335 3.046C58.4055 2.794 57.8295 2.668 57.2055 2.668C56.6175 2.668 56.0775 2.764 55.5855 2.956C55.0935 3.148 54.6675 3.424 54.3075 3.784C53.9475 4.144 53.6655 4.57 53.4615 5.062C53.2695 5.554 53.1735 6.1 53.1735 6.7C53.1735 7.3 53.2695 7.846 53.4615 8.338C53.6655 8.83 53.9475 9.256 54.3075 9.616C54.6675 9.976 55.0935 10.252 55.5855 10.444C56.0775 10.636 56.6175 10.732 57.2055 10.732C57.8295 10.732 58.4055 10.612 58.9335 10.372C59.4615 10.12 59.9415 9.742 60.3735 9.238L62.2455 10.966C61.6455 11.698 60.9015 12.256 60.0135 12.64C59.1375 13.024 58.1475 13.216 57.0435 13.216ZM66.7017 13V2.776H62.6697V0.399999H73.6497V2.776H69.6177V13H66.7017ZM80.3163 13V0.399999H86.0403C87.4083 0.399999 88.6143 0.663999 89.6583 1.192C90.7023 1.708 91.5183 2.434 92.1063 3.37C92.6943 4.306 92.9883 5.416 92.9883 6.7C92.9883 7.972 92.6943 9.082 92.1063 10.03C91.5183 10.966 90.7023 11.698 89.6583 12.226C88.6143 12.742 87.4083 13 86.0403 13H80.3163ZM83.2323 10.606H85.8963C86.7363 10.606 87.4623 10.45 88.0743 10.138C88.6983 9.814 89.1783 9.358 89.5143 8.77C89.8623 8.182 90.0363 7.492 90.0363 6.7C90.0363 5.896 89.8623 5.206 89.5143 4.63C89.1783 4.042 88.6983 3.592 88.0743 3.28C87.4623 2.956 86.7363 2.794 85.8963 2.794H83.2323V10.606ZM101.307 13.216C100.311 13.216 99.3874 13.054 98.5354 12.73C97.6954 12.406 96.9634 11.95 96.3394 11.362C95.7274 10.774 95.2474 10.084 94.8994 9.292C94.5634 8.5 94.3954 7.636 94.3954 6.7C94.3954 5.764 94.5634 4.9 94.8994 4.108C95.2474 3.316 95.7334 2.626 96.3574 2.038C96.9814 1.45 97.7134 0.993999 98.5534 0.669999C99.3934 0.345999 100.305 0.184 101.289 0.184C102.285 0.184 103.197 0.345999 104.025 0.669999C104.865 0.993999 105.591 1.45 106.203 2.038C106.827 2.626 107.313 3.316 107.661 4.108C108.009 4.888 108.183 5.752 108.183 6.7C108.183 7.636 108.009 8.506 107.661 9.31C107.313 10.102 106.827 10.792 106.203 11.38C105.591 11.956 104.865 12.406 104.025 12.73C103.197 13.054 102.291 13.216 101.307 13.216ZM101.289 10.732C101.853 10.732 102.369 10.636 102.837 10.444C103.317 10.252 103.737 9.976 104.097 9.616C104.457 9.256 104.733 8.83 104.925 8.338C105.129 7.846 105.231 7.3 105.231 6.7C105.231 6.1 105.129 5.554 104.925 5.062C104.733 4.57 104.457 4.144 104.097 3.784C103.749 3.424 103.335 3.148 102.855 2.956C102.375 2.764 101.853 2.668 101.289 2.668C100.725 2.668 100.203 2.764 99.7234 2.956C99.2554 3.148 98.8414 3.424 98.4814 3.784C98.1214 4.144 97.8394 4.57 97.6354 5.062C97.4434 5.554 97.3474 6.1 97.3474 6.7C97.3474 7.288 97.4434 7.834 97.6354 8.338C97.8394 8.83 98.1154 9.256 98.4634 9.616C98.8234 9.976 99.2434 10.252 99.7234 10.444C100.203 10.636 100.725 10.732 101.289 10.732ZM112.433 13.216C111.581 13.216 110.795 13.06 110.075 12.748C109.367 12.424 108.785 11.968 108.329 11.38L109.949 9.436C110.297 9.892 110.663 10.24 111.047 10.48C111.431 10.708 111.845 10.822 112.289 10.822C113.477 10.822 114.071 10.126 114.071 8.734V2.74H109.643V0.399999H116.969V8.572C116.969 10.132 116.585 11.296 115.817 12.064C115.049 12.832 113.921 13.216 112.433 13.216ZM125.969 13.216C124.973 13.216 124.049 13.054 123.197 12.73C122.357 12.406 121.625 11.95 121.001 11.362C120.389 10.774 119.909 10.084 119.561 9.292C119.225 8.5 119.057 7.636 119.057 6.7C119.057 5.764 119.225 4.9 119.561 4.108C119.909 3.316 120.395 2.626 121.019 2.038C121.643 1.45 122.375 0.993999 123.215 0.669999C124.055 0.345999 124.967 0.184 125.951 0.184C126.947 0.184 127.859 0.345999 128.687 0.669999C129.527 0.993999 130.253 1.45 130.865 2.038C131.489 2.626 131.975 3.316 132.323 4.108C132.671 4.888 132.845 5.752 132.845 6.7C132.845 7.636 132.671 8.506 132.323 9.31C131.975 10.102 131.489 10.792 130.865 11.38C130.253 11.956 129.527 12.406 128.687 12.73C127.859 13.054 126.953 13.216 125.969 13.216ZM125.951 10.732C126.515 10.732 127.031 10.636 127.499 10.444C127.979 10.252 128.399 9.976 128.759 9.616C129.119 9.256 129.395 8.83 129.587 8.338C129.791 7.846 129.893 7.3 129.893 6.7C129.893 6.1 129.791 5.554 129.587 5.062C129.395 4.57 129.119 4.144 128.759 3.784C128.411 3.424 127.997 3.148 127.517 2.956C127.037 2.764 126.515 2.668 125.951 2.668C125.387 2.668 124.865 2.764 124.385 2.956C123.917 3.148 123.503 3.424 123.143 3.784C122.783 4.144 122.501 4.57 122.297 5.062C122.105 5.554 122.009 6.1 122.009 6.7C122.009 7.288 122.105 7.834 122.297 8.338C122.501 8.83 122.777 9.256 123.125 9.616C123.485 9.976 123.905 10.252 124.385 10.444C124.865 10.636 125.387 10.732 125.951 10.732Z" fill="#253042"/>
</svg>
